<svg xmlns="http://www.w3.org/2000/svg" width="300" height="300" viewBox="0 0 300 300" version="1.1">
	<path d="M 85.692 5.250 C 88.242 10.579, 90.721 14, 92.034 14 C 92.432 14, 93.306 12.676, 93.976 11.057 C 95.279 7.913, 94.517 0, 92.912 0 C 91.739 0, 91.749 2.209, 92.934 5.328 C 93.448 6.679, 93.621 8.734, 93.318 9.893 C 92.324 13.693, 89.900 12.156, 87.180 6 C 85.721 2.700, 84.225 -0, 83.854 -0 C 83.484 -0, 84.311 2.362, 85.692 5.250 M 206.988 6.750 C 206.959 23.313, 201.972 31.813, 185.302 43.711 L 181.103 46.708 189.966 47.337 C 194.840 47.683, 201.005 48.818, 203.664 49.860 L 208.500 51.755 209 58.627 C 209.783 69.396, 213.178 74.445, 227.590 86.277 C 239.170 95.783, 242.860 98.691, 263.226 114.353 L 272.953 121.832 268.960 122.507 C 266.765 122.878, 262.838 123.089, 260.234 122.977 C 243.705 122.263, 235.350 123.937, 230.578 128.919 C 226.776 132.887, 227.389 135.944, 232.500 138.500 C 236.044 140.272, 238.608 140.510, 255 140.588 C 265.175 140.637, 279.291 141.221, 286.368 141.887 C 293.446 142.552, 299.453 142.880, 299.718 142.615 C 302.155 140.178, 285.397 138.671, 254.500 138.547 C 239.670 138.487, 235.818 138.168, 232.628 136.737 C 228.927 135.077, 228.821 134.901, 230.230 132.750 C 234.354 126.457, 242.859 123.545, 255 124.267 C 259.675 124.545, 265.975 124.487, 269 124.137 C 273.524 123.613, 274.552 123.137, 274.793 121.456 C 275.003 119.987, 274.158 118.962, 271.793 117.815 C 269.982 116.938, 264.745 113.133, 260.155 109.360 C 255.565 105.587, 249.254 100.700, 246.130 98.500 C 220.266 80.282, 213.531 73.843, 210.798 64.719 C 209.842 61.528, 209.890 60.683, 211.068 59.937 C 211.856 59.438, 212.029 59.024, 211.454 59.015 C 210.189 58.997, 210.161 55.051, 211.411 53.095 C 212.030 52.127, 211.950 51.913, 211.155 52.405 C 210.470 52.827, 210 52.483, 210 51.559 C 210 48.795, 212.551 49.865, 222.121 56.642 C 227.279 60.295, 233.075 64.266, 235 65.467 C 239.190 68.080, 258.965 75.489, 264.250 76.426 C 268.319 77.147, 268.860 78.041, 266.442 80.048 C 263.464 82.519, 259.763 89.979, 260.250 92.528 C 260.832 95.570, 260.646 95.576, 256.683 92.648 C 254.932 91.354, 252.825 89.983, 252 89.601 C 251.175 89.220, 251.625 89.701, 253 90.671 C 254.375 91.640, 257.442 94.332, 259.816 96.651 C 262.189 98.971, 264.266 100.786, 264.430 100.684 C 264.595 100.583, 268.053 103.074, 272.115 106.219 C 276.177 109.364, 280.731 112.881, 282.236 114.034 C 287.274 117.892, 296.363 123, 298.191 123 C 301.435 123, 300.012 121.553, 293.937 118.675 C 287.210 115.488, 281.718 111.265, 282.549 109.920 C 282.854 109.427, 282.518 109.238, 281.802 109.501 C 279.912 110.196, 267.550 100.742, 264.075 95.945 C 261.603 92.532, 261.269 91.423, 262.075 89.304 C 263.450 85.687, 269.915 78.608, 277.134 72.814 L 283.323 67.847 291.661 68.542 C 298.675 69.126, 300 69.001, 300 67.754 C 300 66.252, 294.344 65, 287.556 65 C 284.379 65, 276.710 69.186, 274.128 72.329 C 271.776 75.192, 264.147 74.171, 247 68.698 L 242.500 67.261 242.590 55.881 C 242.717 39.903, 244.662 35.007, 254.858 25 L 262.500 17.500 250 17.470 C 238.235 17.442, 237.178 17.272, 232.030 14.591 C 229.021 13.025, 223.808 9.101, 220.445 5.871 C 215.257 0.890, 213.775 0, 210.665 0 L 207 0 206.988 6.750 M 207.813 21.692 C 206.530 26.080, 206.410 27.667, 207.313 28.324 C 208.144 28.929, 208.050 29.061, 207 28.763 C 206.085 28.504, 203.799 30.466, 201.137 33.798 C 198.737 36.801, 197.387 38.869, 198.137 38.394 C 198.887 37.919, 199.950 37.524, 200.500 37.515 C 201.050 37.507, 201.507 37.050, 201.515 36.500 C 201.524 35.950, 201.935 34.861, 202.430 34.079 C 203.158 32.928, 203.476 33.054, 204.099 34.739 C 204.883 36.857, 206.864 36.817, 213.500 34.546 C 214.840 34.088, 214.675 34.368, 213 35.395 C 211.625 36.238, 208.333 37.665, 205.685 38.566 C 203.037 39.467, 201.129 40.462, 201.445 40.779 C 201.890 41.223, 224.196 34.422, 225.873 33.330 C 226.078 33.196, 224.841 30.965, 223.123 28.372 C 221.355 25.703, 220 24.397, 220 25.363 C 220 26.584, 219.129 26.077, 216.938 23.583 C 215.255 21.665, 213.033 19.828, 212.003 19.501 C 210.972 19.174, 209.987 18.235, 209.814 17.415 C 209.641 16.596, 208.741 18.520, 207.813 21.692 M 66.750 30.578 C 66.338 30.993, 66 32.646, 66 34.251 C 66 35.855, 62.408 48.094, 58.017 61.447 C 50.585 84.052, 45.103 104.342, 43.549 115 C 42.055 125.244, 41.527 125.850, 40.930 118 C 40.441 111.560, 40.334 112.338, 40.177 123.500 C 40.076 130.650, 39.808 144.375, 39.582 154 C 39.355 163.625, 39.383 169.813, 39.645 167.750 C 39.907 165.688, 40.528 164, 41.025 164 C 41.522 164, 45.415 168.056, 49.675 173.013 C 54.738 178.903, 58.917 182.749, 61.738 184.115 C 64.112 185.264, 66.682 187.396, 67.449 188.852 C 69.298 192.364, 77.505 200.095, 82.500 203.031 C 84.700 204.324, 93.247 208.122, 101.492 211.472 C 110.751 215.233, 116.598 218.154, 116.782 219.108 C 116.993 220.200, 114.943 221.486, 109.790 223.494 C 105.780 225.057, 98.791 228.124, 94.257 230.309 L 86.014 234.281 82.138 231.596 C 78.476 229.058, 73.657 223.789, 69.757 218.061 C 68.798 216.652, 68.010 215.869, 68.007 216.320 C 67.983 219.223, 81.517 234, 84.200 234 C 84.705 234, 84.834 234.460, 84.486 235.023 C 82.636 238.016, 64.474 223.619, 61.519 216.817 C 60.564 214.619, 60.099 214.175, 60.139 215.500 C 60.202 217.600, 61.728 223.031, 61.900 221.769 C 61.955 221.366, 64.818 223.855, 68.261 227.298 C 71.705 230.742, 75.980 234.163, 77.761 234.901 C 79.543 235.639, 81 236.638, 81 237.121 C 81 237.605, 81.867 238, 82.926 238 C 84.389 238, 83.608 239.189, 79.676 242.947 L 74.500 247.894 79 252.512 C 81.475 255.053, 85.638 258.769, 88.250 260.771 C 90.862 262.773, 93.001 264.656, 93.001 264.955 C 93.002 265.255, 86.201 265.364, 77.888 265.199 C 66.870 264.979, 62.180 264.509, 60.586 263.465 C 58.675 262.212, 58.122 262.226, 56.193 263.577 C 54.327 264.884, 49.824 265.109, 26.993 265.032 L 0 264.941 0 282.474 L 0 300.006 150.250 299.753 L 300.500 299.500 300.684 281.500 C 300.785 271.600, 300.635 264.063, 300.350 264.750 C 299.760 266.177, 287.439 266.397, 266.871 265.348 L 254.243 264.704 258.208 257.352 C 260.389 253.308, 261.988 250, 261.761 250 C 261.535 250, 259.211 253.375, 256.598 257.500 C 253.985 261.625, 251.458 265, 250.984 265 C 250.509 265, 252.082 261.288, 254.480 256.750 C 259.315 247.600, 263.495 235, 262.701 231.965 C 262.418 230.883, 262.537 230.214, 262.966 230.479 C 263.956 231.091, 264.888 225.794, 265.682 215.039 C 266.160 208.555, 267.055 204.933, 269.512 199.539 C 272.694 192.551, 276.019 182.427, 275.979 179.846 C 275.968 179.106, 274.588 182.550, 272.913 187.500 C 269.099 198.772, 261.973 212.391, 256.027 219.772 C 244.747 233.774, 224.074 247.554, 206 253.118 C 197.857 255.625, 183.952 256.286, 174.500 254.617 L 169.500 253.733 176.715 251.493 C 189.604 247.492, 197.238 241.166, 208.389 225.247 C 211.569 220.708, 215.074 216.361, 216.177 215.589 C 218.248 214.138, 221.517 210, 220.592 210 C 220.304 210, 218.591 211.276, 216.785 212.835 C 214.978 214.394, 211.815 216.796, 209.755 218.173 C 207.696 219.551, 206.346 221.047, 206.755 221.499 C 207.165 221.951, 206.950 222.005, 206.278 221.619 C 205.606 221.233, 203.974 221.626, 202.651 222.493 C 200.351 224, 194 226.226, 194 225.525 C 194 225.341, 195.980 224.029, 198.401 222.611 C 210.406 215.576, 222.472 194.451, 225.984 174.324 C 228.500 159.898, 226.864 131.283, 222.443 112.434 C 218.956 97.562, 208.565 69, 206.642 69 C 206.463 69, 208.235 73.842, 210.579 79.760 C 212.923 85.678, 215.138 91.702, 215.501 93.147 L 216.160 95.775 210.830 94.524 C 199.691 91.910, 185.291 87.830, 180 85.788 C 166.126 80.433, 152.089 71.993, 145.518 65.054 C 143.023 62.420, 142.778 61.749, 144.018 60.949 C 147.038 59, 155.769 56.918, 164.928 55.962 C 170.113 55.421, 174.613 54.697, 174.928 54.353 C 175.242 54.009, 170.451 53.982, 164.280 54.293 C 154.642 54.778, 152.207 55.267, 147.015 57.759 L 140.969 60.661 137.649 55.580 C 133.044 48.535, 133.164 48.772, 130.395 41.246 L 127.913 34.500 128.407 54 C 128.945 75.259, 130.693 86.319, 135.568 99.303 C 139.226 109.047, 146.609 123.340, 149.166 125.631 C 150.379 126.718, 149.608 124.947, 147.324 121.401 C 142.031 113.183, 135.181 95.666, 132.906 84.532 C 130.959 74.998, 128.988 56.033, 129.058 47.500 L 129.100 42.500 131.853 48.147 C 133.367 51.253, 135.889 55.477, 137.458 57.534 C 139.978 60.837, 140.157 61.520, 138.995 63.387 C 137.798 65.308, 137.830 65.375, 139.342 64.125 C 140.803 62.918, 141.554 63.256, 145.501 66.894 C 152.162 73.034, 163.749 80.276, 173.323 84.284 C 184.405 88.923, 200.647 94.747, 209.892 97.397 C 217.246 99.505, 217.291 99.539, 218.660 104.008 C 222.564 116.750, 223.126 122.048, 221.999 135.500 C 220.584 152.376, 218.861 159.551, 213.980 168.876 C 207.852 180.585, 197.049 192.053, 178.456 206.589 C 173.471 210.486, 173.260 210.547, 160.456 211.778 C 153.330 212.463, 142.806 214.084, 137.070 215.379 L 126.639 217.735 110.888 212.463 C 91.480 205.966, 84.432 202.279, 76.519 194.482 C 71.500 189.537, 69.186 186.044, 64.007 175.594 C 60.512 168.542, 56.027 160.236, 54.039 157.136 C 45.064 143.134, 45 142.962, 45 132.644 C 45 115.259, 49.708 88.538, 53.367 85.159 C 55.722 82.985, 67.285 76.560, 70.615 75.576 C 72.443 75.036, 73.381 76.110, 77.517 83.479 C 81.067 89.803, 84.582 94.204, 91.117 100.504 C 95.965 105.177, 100.572 109, 101.357 109 C 102.141 109, 104.969 111.149, 107.641 113.776 C 110.314 116.403, 114.750 120.314, 117.500 122.467 C 121.624 125.695, 121.311 125.252, 115.716 119.941 C 111.985 116.398, 106.135 110.538, 102.716 106.918 C 99.297 103.297, 97.287 101.301, 98.250 102.482 C 101.830 106.874, 99.831 106.260, 94.932 101.462 C 89.364 96.010, 81.805 86.135, 77.548 78.750 L 74.810 74 81.155 73.970 C 86.065 73.946, 87.093 73.702, 85.700 72.892 C 84.710 72.316, 81.619 71.729, 78.832 71.588 C 75.699 71.430, 73.480 70.792, 73.016 69.916 C 71.043 66.185, 68.689 52.670, 68.125 41.842 C 67.781 35.231, 67.162 30.162, 66.750 30.578 M 292.413 33.722 C 295.734 37.284, 298 38.362, 298 36.382 C 298 36.107, 297.578 36.143, 297.061 36.462 C 296.545 36.781, 295.757 36.470, 295.309 35.771 C 294.861 35.072, 293.146 33.381, 291.497 32.014 C 289.343 30.227, 289.600 30.707, 292.413 33.722 M 223.847 40.161 C 224.734 41.339, 224.779 42.019, 224.003 42.498 C 223.327 42.916, 223.069 45.446, 223.329 49.106 C 223.728 54.717, 223.972 55.197, 227.866 58.018 C 230.130 59.658, 232.170 61, 232.399 61 C 232.628 61, 231.447 56.935, 229.775 51.966 C 228.103 46.997, 226.603 43.064, 226.442 43.224 C 226.282 43.385, 226.784 46.213, 227.559 49.508 C 229.375 57.228, 229.371 57.269, 226.935 55.965 C 225.114 54.991, 224.897 54.037, 225.096 47.891 C 225.254 43.029, 224.910 40.556, 223.959 39.711 C 222.824 38.702, 222.805 38.777, 223.847 40.161 M 64.791 46.500 C 64.440 47.600, 61.418 56.502, 58.076 66.282 C 54.734 76.063, 52 84.296, 52 84.578 C 52 84.861, 53.969 83.588, 56.375 81.751 C 58.781 79.914, 62.944 77.306, 65.625 75.955 C 68.306 74.605, 70.681 73.394, 70.902 73.264 C 71.124 73.135, 70.544 70.210, 69.614 66.764 C 68.683 63.319, 67.362 56.900, 66.676 52.500 C 65.876 47.364, 65.201 45.216, 64.791 46.500 M 179.250 55.689 C 180.213 55.941, 181.787 55.941, 182.750 55.689 C 183.713 55.438, 182.925 55.232, 181 55.232 C 179.075 55.232, 178.287 55.438, 179.250 55.689 M 288.515 77.202 C 286.468 79.566, 283.844 83.424, 282.685 85.776 C 281.525 88.127, 280.071 89.858, 279.454 89.621 C 278.209 89.143, 280.792 97.802, 283.330 102.614 C 285.080 105.933, 298.685 119.649, 299.459 118.875 C 299.742 118.591, 297.513 116.234, 294.504 113.637 C 290.500 110.180, 288.098 106.969, 285.543 101.656 C 282.367 95.053, 282.148 94.047, 283.124 90.514 C 284.290 86.289, 285.836 83.539, 290.322 77.704 C 294.412 72.386, 293.021 72, 288.515 77.202 M 298.179 93.284 C 297.489 94.116, 297.415 95.905, 297.969 98.363 C 299.253 104.058, 299.843 103.805, 299.787 97.585 C 299.760 94.513, 299.626 92, 299.491 92 C 299.356 92, 298.765 92.578, 298.179 93.284 M 93 96.378 C 93 96.585, 93.787 97.373, 94.750 98.128 C 96.336 99.371, 96.371 99.336, 95.128 97.750 C 93.821 96.084, 93 95.555, 93 96.378 M 73.138 105.588 C 73.821 107.190, 74.729 108.912, 75.155 109.415 C 75.908 110.304, 68.184 113.620, 62.927 114.664 C 61.512 114.945, 58.589 114.437, 56.431 113.535 L 52.507 111.896 55.838 115.333 C 59.117 118.716, 59.145 118.820, 57.575 121.856 C 55.940 125.016, 53.569 126.726, 49.058 127.996 C 46.655 128.672, 46.757 128.787, 50.750 129.897 C 54.184 130.851, 55 131.521, 55 133.389 C 55 137.038, 57.071 142.074, 58.267 141.335 C 58.969 140.901, 59.090 141.324, 58.617 142.555 C 58.220 143.591, 58.219 144.114, 58.616 143.717 C 59.013 143.320, 60.103 143.688, 61.039 144.535 C 62.626 145.972, 62.674 145.789, 61.761 141.787 C 59.883 133.558, 64.128 125.016, 72.122 120.938 L 75.993 118.963 74 122.231 C 71.637 126.108, 71.215 133.239, 73.399 132.400 C 75.759 131.495, 76.081 133.627, 73.986 136.290 C 72.894 137.679, 72 139.771, 72 140.940 C 72 147.044, 79.482 157.014, 85.570 159.023 C 88.091 159.855, 89.661 159.719, 93.009 158.380 C 97.651 156.522, 100.310 152.164, 101.556 144.376 C 102.442 138.837, 99.678 128.533, 95.878 123.208 L 92.815 118.915 95.658 119.604 C 97.221 119.983, 99.538 120.676, 100.807 121.143 C 102.549 121.786, 102.920 121.688, 102.322 120.747 C 101.887 120.061, 101.524 119.064, 101.515 118.532 C 101.493 117.148, 94.212 113.183, 89.500 111.989 C 79.338 109.415, 77.438 108.610, 74.759 105.742 L 71.896 102.677 73.138 105.588 M 209.500 108.234 C 206.826 113.798, 202.329 116.025, 195.250 115.290 C 190.173 114.764, 189.998 114.642, 189.930 111.623 C 189.891 109.905, 189.473 107.600, 189 106.500 C 188.263 104.785, 188.131 104.931, 188.070 107.527 C 187.971 111.813, 185.803 114.427, 178.172 119.463 C 170.991 124.203, 162.979 131.692, 166.500 130.374 C 168.339 129.686, 168.379 129.775, 167 131.483 C 165.945 132.789, 166.687 132.558, 169.501 130.702 C 176.207 126.280, 184.375 124, 193.507 124 C 198.014 124, 203.037 124.466, 204.670 125.035 C 206.625 125.716, 208.468 125.738, 210.069 125.098 C 211.406 124.564, 211.938 124.098, 211.250 124.063 C 209.330 123.966, 209.760 121.885, 212.250 119.226 L 214.500 116.824 211.746 118.074 C 208.207 119.681, 207.641 119.026, 209.444 115.412 C 210.822 112.649, 212.682 103.959, 211.878 104.036 C 211.670 104.056, 210.600 105.945, 209.500 108.234 M 111.909 110.342 C 113.732 113.005, 117.208 117.419, 119.634 120.151 C 122.060 122.883, 123.741 125.611, 123.368 126.213 C 122.962 126.871, 123.152 127.024, 123.845 126.595 C 124.480 126.203, 125 126.343, 125 126.906 C 125 127.469, 125.987 128.458, 127.194 129.104 C 129.497 130.336, 128.482 128.931, 119.265 118.124 L 115.533 113.748 120.293 116.767 C 126.116 120.459, 141.723 127.259, 143.226 126.758 C 143.827 126.558, 142.110 125.571, 139.410 124.565 C 130.367 121.198, 118.973 114.781, 113.760 110.119 L 108.596 105.500 111.909 110.342 M 94 108.628 C 99.859 111.222, 102 111.974, 102 111.440 C 102 110.758, 93.151 106.989, 91.667 107.039 C 91.025 107.061, 92.075 107.776, 94 108.628 M 173.507 114.989 C 173.157 115.555, 173.558 115.723, 174.448 115.382 C 176.180 114.717, 176.497 114, 175.059 114 C 174.541 114, 173.843 114.445, 173.507 114.989 M 168.250 117.989 C 166.463 119.079, 165 120.450, 165 121.036 C 165 121.622, 166.575 120.900, 168.500 119.432 C 171.562 117.097, 172.610 115.991, 171.750 116.004 C 171.613 116.006, 170.037 116.899, 168.250 117.989 M 98.733 118.124 C 99.412 118.808, 100.219 119.115, 100.526 118.807 C 100.834 118.499, 100.279 117.940, 99.293 117.564 C 97.868 117.022, 97.753 117.136, 98.733 118.124 M 84.571 130.571 C 82.061 133.082, 82.544 139.635, 85.455 142.545 C 86.805 143.895, 88.572 145, 89.383 145 C 94.005 145, 95.649 136.366, 91.927 131.635 C 89.580 128.651, 86.882 128.261, 84.571 130.571 M 78 135 C 78 135.550, 78.450 136, 79 136 C 79.550 136, 80 135.550, 80 135 C 80 134.450, 79.550 134, 79 134 C 78.450 134, 78 134.450, 78 135 M 223.710 143.750 C 223.407 146.363, 223.573 148.928, 224.080 149.450 C 224.644 150.032, 225 148.193, 225 144.700 C 225 141.565, 224.834 139, 224.630 139 C 224.427 139, 224.012 141.137, 223.710 143.750 M 41 152.639 C 41 159.205, 41.060 159.351, 46.506 166.008 C 52.289 173.076, 61.845 182.488, 62.536 181.797 C 62.759 181.574, 62.212 179.110, 61.320 176.322 C 59.959 172.064, 59.098 170.987, 55.945 169.596 C 53.880 168.685, 51.913 167.214, 51.572 166.328 C 51.097 165.090, 51.257 164.968, 52.260 165.801 C 52.978 166.397, 54.767 167.341, 56.235 167.899 C 58.551 168.780, 58.823 168.688, 58.289 167.207 C 56.328 161.763, 44.066 146, 41.792 146 C 41.356 146, 41 148.987, 41 152.639 M 222.534 157.945 C 222.213 158.464, 221.313 160.695, 220.535 162.902 C 218.193 169.539, 209.214 181.912, 199.261 192.217 C 190.411 201.379, 189.893 202.150, 190.188 205.717 L 190.500 209.500 199.973 209.500 L 209.446 209.500 213.602 202.734 C 219.839 192.580, 224.165 178.645, 224.771 166.750 C 225.107 160.157, 224.919 157, 224.193 157 C 223.602 157, 222.855 157.425, 222.534 157.945 M 163.675 167.783 C 164.037 169.220, 163.603 170.781, 162.503 171.997 C 160.896 173.773, 154.412 176.783, 150.951 177.360 C 150.153 177.493, 148.150 178.383, 146.500 179.337 C 143.823 180.886, 143.769 181.004, 146 180.428 C 154.926 178.125, 166 172.360, 166 170.017 C 166 169.668, 165.347 168.509, 164.550 167.441 C 163.152 165.571, 163.120 165.583, 163.675 167.783 M 153.578 171.180 C 151.610 173.479, 150.026 175.841, 150.059 176.430 C 150.091 177.018, 150.654 176.643, 151.309 175.596 C 151.964 174.548, 153.784 172.186, 155.354 170.346 C 156.923 168.506, 157.971 167, 157.682 167 C 157.392 167, 155.546 168.881, 153.578 171.180 M 276.079 176.583 C 276.127 177.748, 276.364 177.985, 276.683 177.188 C 276.972 176.466, 276.936 175.603, 276.604 175.271 C 276.272 174.939, 276.036 175.529, 276.079 176.583 M 123 180.948 C 123.825 181.510, 125.813 181.976, 127.417 181.985 C 131.259 182.005, 130.461 181.426, 125.500 180.596 C 122.634 180.116, 121.925 180.215, 123 180.948 M 183 207 L 179.500 209.946 183.750 209.973 C 187.812 209.999, 188 209.867, 188 207 C 188 203.291, 187.406 203.291, 183 207 M 262.574 212.857 C 260.642 216.593, 260.627 217, 262.421 217 C 263.806 217, 265.705 211.372, 264.669 210.336 C 264.382 210.049, 263.439 211.184, 262.574 212.857 M 62 223.805 C 62 225.201, 66.719 236, 67.329 236 C 67.760 236, 63.124 223.897, 62.380 223.083 C 62.171 222.854, 62 223.179, 62 223.805 M 201.872 231.750 C 200.629 233.336, 200.664 233.371, 202.250 232.128 C 203.916 230.821, 204.445 230, 203.622 230 C 203.415 230, 202.627 230.787, 201.872 231.750 M 196.453 238.250 L 192.500 242.500 196.750 238.547 C 199.088 236.373, 201 234.460, 201 234.297 C 201 233.540, 200.129 234.298, 196.453 238.250 M 267.624 235.539 C 266.659 238.053, 266.943 238.702, 268.122 236.675 C 268.706 235.671, 268.973 234.639, 268.715 234.382 C 268.458 234.124, 267.966 234.645, 267.624 235.539 M 264.679 242.546 C 262.330 247.473, 262.661 248.311, 265.116 243.656 C 266.232 241.541, 266.968 239.634, 266.752 239.418 C 266.535 239.202, 265.603 240.610, 264.679 242.546 M 0.413 282.500 C 0.414 292.400, 0.564 296.315, 0.746 291.199 C 0.928 286.084, 0.927 277.984, 0.744 273.199 C 0.561 268.415, 0.412 272.600, 0.413 282.500 M 127.061 267.962 C 125.108 269.169, 126.261 272.463, 128.760 272.820 C 130.560 273.076, 131 272.655, 131 270.677 C 131 268.022, 129.091 266.707, 127.061 267.962 M 135.701 269.632 C 134.372 270.961, 134.897 293.670, 136.284 294.820 C 138.384 296.564, 139.842 294.754, 140.181 289.984 C 140.449 286.212, 140.857 285.449, 142.750 285.180 C 144.761 284.895, 145 285.285, 145 288.859 C 145 293.586, 147.401 296.742, 149.606 294.912 C 151.685 293.187, 151.594 271.738, 149.500 270 C 147.141 268.042, 145 270.512, 145 275.192 C 145 278.713, 144.757 279.105, 142.750 278.820 C 140.890 278.555, 140.413 277.721, 140 274.009 C 139.525 269.738, 137.578 267.756, 135.701 269.632 M 170.721 269.612 C 170.385 269.949, 171.435 272.572, 173.055 275.443 C 175.484 279.747, 176 281.809, 176 287.208 C 176 291.420, 176.472 294.147, 177.324 294.854 C 179.669 296.800, 180.999 293.992, 181.018 287.050 C 181.033 281.737, 181.578 279.518, 183.903 275.301 C 185.479 272.442, 186.521 269.854, 186.218 269.551 C 184.774 268.107, 182.004 269.304, 180.202 272.150 L 178.207 275.301 176.578 272.150 C 175.089 269.271, 172.280 268.053, 170.721 269.612 M 155 276.559 C 155 277.416, 155.450 277.840, 156 277.500 C 156.550 277.160, 157 276.459, 157 275.941 C 157 275.423, 156.550 275, 156 275 C 155.450 275, 155 275.702, 155 276.559 M 168 276 C 168 276.550, 168.423 277, 168.941 277 C 169.459 277, 170.160 276.550, 170.500 276 C 170.840 275.450, 170.416 275, 169.559 275 C 168.702 275, 168 275.450, 168 276 M 193.863 275.917 C 188.197 276.711, 186.325 278.163, 185.060 282.744 C 183.330 289.009, 187.339 295.333, 193.040 295.333 C 199.111 295.333, 202.858 289.136, 200.936 282.272 C 199.996 278.915, 200.009 277.694, 200.994 276.507 C 202.404 274.808, 202.008 274.776, 193.863 275.917 M 100.441 277.418 C 98.806 278.613, 98.500 280.069, 98.500 286.647 C 98.500 293.493, 98.732 294.503, 100.380 294.827 C 103.060 295.354, 103.967 293.322, 103.985 286.750 C 103.996 282.509, 104.366 281, 105.393 281 C 107.311 281, 108 283.241, 108 289.475 C 108 293.152, 108.439 294.954, 109.427 295.334 C 111.727 296.216, 112.867 293.837, 113.194 287.465 C 113.425 282.966, 113.869 281.500, 115 281.500 C 116.100 281.500, 116.580 282.870, 116.798 286.639 C 117.149 292.669, 119.407 295.333, 124.169 295.333 C 129.216 295.333, 131.145 292.057, 130.792 284.087 C 130.534 278.264, 130.268 277.500, 128.500 277.500 C 126.778 277.500, 126.431 278.333, 126 283.500 C 125.630 287.944, 125.111 289.500, 124 289.500 C 122.929 289.500, 122.353 288.036, 121.985 284.386 C 121.702 281.573, 120.859 278.535, 120.113 277.636 C 118.550 275.753, 114.790 275.507, 111.827 277.093 C 110.350 277.883, 109.483 277.883, 108.693 277.093 C 107.159 275.559, 102.748 275.733, 100.441 277.418 M 157.494 278.252 C 153.742 281.479, 153.065 287.555, 156.036 291.325 C 159.188 295.323, 162.426 296.348, 166.027 294.486 C 169.707 292.583, 171 290.170, 171 285.202 C 171 277.445, 163.136 273.398, 157.494 278.252 M 159.632 283.115 C 157.732 285.827, 158.942 289.385, 161.914 289.827 C 164.734 290.246, 167 288.354, 167 285.578 C 167 281.014, 162.222 279.417, 159.632 283.115 M 190.200 282.200 C 189.540 282.860, 189 284.380, 189 285.578 C 189 290.685, 196.246 291.715, 196.822 286.690 C 197.362 281.985, 193.221 279.179, 190.200 282.200" stroke="none" fill="black" fill-rule="evenodd"/>
</svg>